/vscmnt/brussel_pixiu_data/_data_brussel/112/vsc11236/PredSimResults/SUBJ09mtu3D/weighted-expIG/worker_04.mot
version=1
nRows=7
nColumns=50
inDegrees=yes
endheader
                time	         pelvis_tilt	         pelvis_list	     pelvis_rotation	           pelvis_tx	           pelvis_ty	           pelvis_tz	       hip_flexion_r	     hip_adduction_r	      hip_rotation_r	        knee_angle_r	       ankle_angle_r	         mtp_angle_r	       hip_flexion_l	     hip_adduction_l	      hip_rotation_l	        knee_angle_l	       ankle_angle_l	         mtp_angle_l	    lumbar_extension	      lumbar_bending	     lumbar_rotation	 ercspn_r/activation	 intobl_r/activation	 extobl_r/activation	    abd_r/activation	    add_r/activation	hamstrings_r/activation	bifemsh_r/activation	glut_max_r/activation	iliopsoas_r/activation	rect_fem_r/activation	  vasti_r/activation	gastroc_r/activation	 soleus_r/activation	tib_ant_r/activation	 ercspn_l/activation	 intobl_l/activation	 extobl_l/activation	    abd_l/activation	    add_l/activation	hamstrings_l/activation	bifemsh_l/activation	glut_max_l/activation	iliopsoas_l/activation	rect_fem_l/activation	  vasti_l/activation	gastroc_l/activation	 soleus_l/activation	tib_ant_l/activation	
          0.00000000	         -7.86003315	         -4.66065697	          7.98767492	          0.00000000	          0.98241735	         -0.01396759	         31.10768616	          1.26647988	         -5.16157949	         -1.75987322	          6.47101203	          0.21645817	         -9.94711172	         -4.79097431	          6.48152462	         -6.16361366	         11.26636909	         26.41753457	         -0.20656939	          2.82948655	         -3.49699975	          0.09020935	          0.13187661	          0.03287559	          0.01219457	          0.06973133	          0.12287542	          0.20182387	          0.00999999	          0.11352743	          0.00999999	          0.00999999	          0.01013385	          0.00999999	          0.26410538	          0.03635328	          0.00999999	          0.00999999	          0.06054231	          0.01409355	          0.02255372	          0.13883736	          0.05963491	          0.48366030	          0.01000000	          0.01000000	          0.35237672	          0.29155269	          0.01516505	
          0.01316747	         -7.96339731	         -4.57763917	          7.99096495	          0.01798710	          0.98011443	         -0.01359247	         31.34635167	          1.35697063	         -5.01919535	         -3.62653227	          6.02882147	          0.21935372	        -10.26269065	         -4.73638554	          6.06874327	         -7.36405662	         10.67866841	         28.35530954	          0.09412693	          3.13315685	         -3.60229526	          0.07397497	          0.10814364	          0.02695918	          0.00999999	          0.12049764	          0.10614993	          0.16550296	          0.06908915	          0.09309665	          0.00999999	          0.00999999	          0.02211412	          0.01487076	          0.27618052	          0.07978496	          0.00999999	          0.00999999	          0.04964691	          0.04310578	          0.01849488	          0.11385172	          0.04890281	          0.49755002	          0.00999999	          0.00999999	          0.32668786	          0.27505524	          0.01243589	
          0.02633494	         -8.04494069	         -4.48753102	          7.94361103	          0.03645141	          0.97807820	         -0.01314922	         31.38152750	          1.43152217	         -4.84849392	         -5.40510408	          5.55868299	          0.20093124	        -10.45639803	         -4.66119289	          5.63216497	         -8.86917618	          9.93444066	         30.37096377	          0.42101249	          3.44001530	         -3.67804807	          0.06173630	          0.08868174	          0.02210752	          0.06058396	          0.10380272	          0.09525407	          0.13571848	          0.11260888	          0.07634265	          0.00999999	          0.00999999	          0.01813439	          0.01219457	          0.32638799	          0.07685726	          0.00999999	          0.00999999	          0.04071228	          0.03534832	          0.02208243	          0.09336257	          0.04010209	          0.48610009	          0.01000000	          0.01813426	          0.29839436	          0.25492263	          0.01019789	
          0.03950241	         -8.10799862	         -4.38597249	          7.84683913	          0.05507212	          0.97657563	         -0.01261004	         31.22988646	          1.51281728	         -4.70782067	         -6.86714501	          4.93918911	          0.17764873	        -10.43125255	         -4.55645817	          5.18279366	        -10.79421148	          8.96932070	         32.45710981	          0.74068379	          3.74182386	         -3.72037367	          0.07148874	          0.07272227	          0.01812897	          0.11885467	          0.12853315	          0.08087813	          0.11129412	          0.16278256	          0.06260377	          0.00999999	          0.00999999	          0.01487086	          0.00999999	          0.35985108	          0.10486221	          0.00999999	          0.00999999	          0.03338556	          0.04530566	          0.01953669	          0.07656072	          0.03288518	          0.47133872	          0.01000000	          0.01487076	          0.24831180	          0.21299406	          0.00999999	
          0.05266987	         -8.15161703	         -4.27824588	          7.70419107	          0.07357142	          0.97578635	         -0.01198708	         30.98143663	          1.60888682	         -4.59050003	         -8.21182191	          4.46908903	          0.14722788	        -10.10045562	         -4.42316657	          4.72260300	        -13.25888009	          7.78081159	         34.49671411	          1.02802684	          4.04662099	         -3.72611414	          0.06852201	          0.05963492	          0.01486642	          0.15500476	          0.14591928	          0.06671722	          0.09126525	          0.19504459	          0.05133738	          0.00999999	          0.00999999	          0.01219465	          0.01000000	          0.37934724	          0.13440477	          0.00999999	          0.00999999	          0.02737738	          0.06026355	          0.01887970	          0.06278259	          0.02696705	          0.43609089	          0.00999999	          0.01219457	          0.20362475	          0.17466292	          0.00999999	
          0.06583734	         -8.17431147	         -4.16645751	          7.51800510	          0.09174849	          0.97576327	         -0.01129905	         30.68360827	          1.71689975	         -4.47787444	         -9.51251826	          4.20102732	          0.12741467	         -9.41611379	         -4.26427404	          4.24669707	        -16.31851996	          6.37819495	         36.28421110	          1.26650362	          4.35752742	         -3.69343211	          0.06763964	          0.04890282	          0.01219101	          0.16918277	          0.13187658	          0.06008687	          0.07484084	          0.20357106	          0.04209853	          0.00999999	          0.07574279	          0.01000006	          0.00999999	          0.38567785	          0.15165185	          0.00999999	          0.00999999	          0.02245045	          0.08373776	          0.02706254	          0.05148402	          0.02211397	          0.37645189	          0.00999999	          0.00999999	          0.16697974	          0.14322998	          0.00999999	
          0.07900481	         -8.17675093	         -4.04092663	          7.29112234	          0.10949244	          0.97653199	         -0.01058616	         30.29196204	          1.82808838	         -4.34453610	        -10.65424494	          4.04547795	          0.10876609	         -8.37753786	         -4.07617766	          3.74521248	        -19.94505122	          4.82506250	         37.40009235	          1.44866084	          4.66537417	         -3.62194945	          0.05546698	          0.04010210	          0.00999999	          0.16552483	          0.10814362	          0.05302143	          0.06137223	          0.18967244	          0.03452233	          0.00999999	          0.14849927	          0.00999999	          0.00999999	          0.38452996	          0.16149652	          0.00999999	          0.00999999	          0.01841019	          0.09705009	          0.02476078	          0.04616696	          0.01813426	          0.30870432	          0.00999999	          0.00999999	          0.13692950	          0.11745382	          0.00999999	
